<?xml version="1.0" encoding="UTF-8" standalone="no"?>
<!-- Created with Inkscape (http://www.inkscape.org/) -->

<svg
   version="1.1"
   id="svg1"
   width="600"
   height="600"
   viewBox="0 0 600 600"
   sodipodi:docname="history.svg"
   inkscape:version="1.4.3 (0d15f75, 2025-12-25)"
   xmlns:inkscape="http://www.inkscape.org/namespaces/inkscape"
   xmlns:sodipodi="http://sodipodi.sourceforge.net/DTD/sodipodi-0.dtd"
   xmlns="http://www.w3.org/2000/svg"
   xmlns:svg="http://www.w3.org/2000/svg">
  <defs
     id="defs1" />
  <sodipodi:namedview
     id="namedview1"
     pagecolor="#ffffff"
     bordercolor="#000000"
     borderopacity="0.25"
     inkscape:showpageshadow="2"
     inkscape:pageopacity="0.0"
     inkscape:pagecheckerboard="0"
     inkscape:deskcolor="#d1d1d1"
     inkscape:zoom="2.138998"
     inkscape:cx="159.88795"
     inkscape:cy="319.7759"
     inkscape:window-width="3840"
     inkscape:window-height="2054"
     inkscape:window-x="-11"
     inkscape:window-y="-11"
     inkscape:window-maximized="1"
     inkscape:current-layer="g1">
    <inkscape:page
       x="0"
       y="0"
       width="600"
       height="600"
       id="page2"
       margin="0"
       bleed="0" />
  </sodipodi:namedview>
  <g
     inkscape:groupmode="layer"
     inkscape:label="Image"
     id="g1"
     style="display:inline">
    <path
       style="fill:#168967"
       d="M 259.93479,173.4457 192.14604,297.33548 324.3619,369.68 l 58.89078,-107.62797 -80.16857,-43.86582 -41.61487,76.05475 31.80743,17.40406 29.31446,-53.57469 32.09594,17.56193 -38.37215,70.1284 -97.28233,-53.22995 77.04888,-140.81347 -50.27889,-27.51109 -108.05155,197.47353 201.67899,110.35265 95.86815,-175.2073 -19.65944,-10.75706 -84.51493,154.45832 -165.31649,-90.4562 78.74824,-143.91919 14.9075,8.15693 z"
       id="path3" />
    <path
       style="fill:#168967"
       d="M 356.36364,144.46281 509.54311,232.90102 355.02037,500.54226 85.326676,344.83453 234.78192,85.970458 202.322,67.229716 28.631952,368.0697 393.88523,578.94878 588.25129,242.2969 368.2346,115.27021 352.62609,142.30494 Z"
       id="path4" />
    <path
       style="fill:#22c55e;fill-opacity:1;stroke:#22c55e;stroke-width:0.467509;stroke-opacity:1"
       d="M 211.54765,473.33882 C 111.39562,415.50756 29.476107,367.92181 29.504297,367.59268 29.540517,367.1698 201.72057,68.48017 202.37758,67.700458 c 0.0409,-0.04856 7.26216,4.053828 16.04721,9.116418 l 15.97281,9.20471 -1.07487,1.870034 c -0.59117,1.028519 -34.1459,59.16126 -74.56606,129.18387 -40.42015,70.0226 -73.424477,127.51397 -73.342934,127.7586 0.23856,0.71568 269.388784,155.99963 269.785764,155.65062 0.9721,-0.85462 154.60832,-267.62224 154.28817,-267.89968 -0.20393,-0.17674 -35.29368,-20.46494 -77.97722,-45.08489 -42.68353,-24.61994 -77.78457,-44.93256 -78.0023,-45.13915 -0.30602,-0.29036 13.29155,-24.72199 14.64027,-26.3051 0.2333,-0.27385 105.16947,60.05912 210.3935,120.96557 5.01403,2.90226 9.07812,5.45822 9.03128,5.67992 -0.0987,0.46752 -193.1799,334.97826 -193.63036,335.46223 -0.16532,0.1776 -82.24316,-46.99355 -182.39519,-104.82479 z"
       id="path7" />
    <path
       style="fill:#22c55e;fill-opacity:1;stroke:#22c55e;stroke-width:0.467509;stroke-opacity:1"
       d="M 389.43468,575.5529 C 385.45824,573.47716 352.09873,554.40244 302.24432,525.69816 279.69846,512.71711 205.022,469.63304 190.04225,460.96395 181.94267,456.27655 168.47842,448.48897 160.1217,443.65823 88.531051,402.27397 33.909497,370.43149 31.603413,368.73651 c -0.925574,-0.6803 -1.773107,-1.30061 -1.883406,-1.37845 -0.1103,-0.0779 0.257863,-0.76157 0.81814,-1.51939 0.560276,-0.75781 1.018685,-1.48193 1.018685,-1.60915 0,-0.12723 1.075182,-2.08175 2.389294,-4.34339 1.314111,-2.26164 2.921627,-5.05878 3.572256,-6.21586 3.803986,-6.76503 21.051631,-36.81438 41.860935,-72.93134 13.111186,-22.75599 26.260303,-45.58209 29.220263,-50.72469 8.07484,-14.02912 57.27813,-99.31785 76.19221,-132.071184 9.13182,-15.813479 16.84083,-29.011639 17.13115,-29.329245 0.41263,-0.45142 1.4441,-0.106464 4.72564,1.580403 3.73553,1.920232 24.92538,13.983711 26.97437,15.356631 0.72244,0.48407 0.15213,1.668931 -5.64361,11.724821 -6.12569,10.628394 -47.41357,82.160634 -53.13941,92.065324 -12.11684,20.95995 -17.70054,30.63616 -23.74047,41.14076 -3.84395,6.68537 -12.50725,21.72746 -19.25177,33.42687 -6.74452,11.6994 -16.7405,29.05566 -22.2133,38.56946 -5.47279,9.5138 -13.206703,22.93614 -17.186463,29.82742 -3.979761,6.89129 -7.15896,12.58027 -7.064888,12.64219 2.17003,1.42817 4.177709,2.64497 4.364118,2.64497 0.131618,0 13.968543,7.95909 30.748713,17.68688 16.78018,9.72778 44.07885,25.52638 60.66372,35.108 16.58487,9.58161 32.99442,19.06533 36.46567,21.07493 9.8734,5.71597 45.51393,26.24388 78.3077,45.10296 16.4563,9.46372 36.40793,20.96331 44.33696,25.55465 7.92902,4.59134 14.55596,8.34402 14.72652,8.33928 0.29371,-0.008 11.69298,-19.55321 35.03249,-60.06624 2.96265,-5.1426 6.90342,-11.97991 8.75728,-15.19403 12.54709,-21.75353 16.54466,-28.67951 19.96807,-34.59564 3.68502,-6.36823 54.00611,-93.76922 65.81156,-114.30586 5.46899,-9.5138 10.82674,-18.77047 11.90611,-20.57038 1.07938,-1.7999 2.10065,-3.58812 2.26952,-3.97382 0.16881,-0.38569 2.70304,-4.80365 5.63156,-9.81768 2.92847,-5.01403 5.29907,-9.14829 5.26793,-9.18724 -0.0597,-0.0748 -27.31254,-15.85158 -53.5863,-31.02137 -36.60742,-21.13616 -55.60665,-32.11744 -73.86636,-42.69367 -10.67089,-6.1807 -21.4463,-12.40891 -23.94537,-13.84047 -2.49906,-1.43156 -4.55025,-2.79544 -4.5582,-3.03087 -0.0195,-0.57839 4.28639,-8.63636 9.68828,-18.1303 l 4.44127,-7.80564 4.26508,2.13979 c 3.49298,1.75243 46.87018,26.46046 78.8327,44.90379 3.98551,2.29976 13.03181,7.51003 20.10287,11.57839 12.03515,6.92444 48.29598,27.8593 75.97015,43.86068 6.68538,3.86552 16.15243,9.33016 21.03789,12.14363 12.25008,7.05464 18.8528,11.04104 19.18931,11.58553 0.24559,0.39734 -13.02021,23.80171 -38.00611,67.05275 -3.71356,6.42824 -8.45143,14.63302 -10.52862,18.23283 -2.07714,3.59982 -5.17612,8.96448 -6.8865,11.92147 -1.71038,2.95699 -4.86606,8.42684 -7.01263,12.15523 -2.14656,3.72838 -5.30224,9.19823 -7.01262,12.15522 -5.12011,8.85179 -9.06453,15.68395 -48.1783,83.45029 -20.62922,35.74103 -40.18415,69.61203 -43.45539,75.26889 -3.27123,5.65685 -7.16243,12.38897 -8.64711,14.96027 -3.41732,5.91847 -23.2551,40.1798 -23.3239,40.28213 -0.0282,0.042 -2.15512,-1.02188 -4.72642,-2.36414 z"
       id="path8" />
    <path
       style="fill:#22c55e;fill-opacity:1;stroke:#22c55e;stroke-width:0.467509;stroke-opacity:1"
       d="m 238.66315,376.57778 c -54.8972,-30.06415 -99.98457,-54.72735 -100.19415,-54.80711 -0.27323,-0.10399 106.62018,-196.22806 107.40159,-197.05649 0.32202,-0.34139 49.5707,27.0851 49.45155,27.53947 -0.0788,0.30057 -17.28814,31.87731 -38.24294,70.17053 -20.9548,38.29322 -38.03036,69.83184 -37.9457,70.08583 0.21788,0.65364 96.30449,53.21765 97.04207,53.08669 0.50524,-0.0897 38.30954,-68.41816 38.57656,-69.72424 0.12444,-0.6087 -32.00723,-18.16468 -32.42174,-17.71446 -0.18953,0.20585 -6.70948,12.05029 -14.48878,26.32099 -7.77931,14.2707 -14.29696,26.11863 -14.48368,26.32872 -0.28315,0.3186 -29.80019,-15.40168 -31.01312,-16.51708 -0.32102,-0.2952 39.71061,-74.2929 40.75762,-75.33969 0.27556,-0.2755 78.25931,42.11131 79.24919,43.07462 0.50624,0.49265 -57.72408,107.10247 -58.41686,106.95135 -0.28393,-0.0619 -29.90746,-16.19925 -65.83007,-35.8607 -48.816,-26.71835 -65.26322,-35.92934 -65.11342,-36.46567 0.11023,-0.39467 15.16684,-28.05451 33.45913,-61.46629 18.29229,-33.4118 33.0991,-60.90769 32.90404,-61.10199 -0.19507,-0.1943 -3.61007,-2.13407 -7.58889,-4.31061 l -7.23422,-3.95733 -1.00448,1.7119 c -2.71349,4.62451 -77.49227,141.59191 -77.63461,142.19824 -0.1188,0.50601 22.79809,13.25187 82.3092,45.77853 45.36061,24.7925 82.63008,45.09407 82.82104,45.11458 0.27284,0.0293 83.79755,-151.98077 84.48582,-153.75926 0.18297,-0.47276 19.10608,9.6456 19.13306,10.23063 0.0375,0.81379 -95.15764,174.18579 -95.63297,174.16935 -0.29268,-0.0101 -45.44804,-24.61636 -100.34524,-54.68051 z"
       id="path9" />
  </g>
</svg>
