<?xml version="1.0" encoding="UTF-8" standalone="no"?>
<!-- Created with Inkscape (http://www.inkscape.org/) -->

<svg
   version="1.1"
   id="svg1"
   width="600"
   height="600"
   viewBox="0 0 600 600"
   sodipodi:docname="overview.svg"
   inkscape:version="1.4.3 (0d15f75, 2025-12-25)"
   xmlns:inkscape="http://www.inkscape.org/namespaces/inkscape"
   xmlns:sodipodi="http://sodipodi.sourceforge.net/DTD/sodipodi-0.dtd"
   xmlns="http://www.w3.org/2000/svg"
   xmlns:svg="http://www.w3.org/2000/svg">
  <defs
     id="defs1">
    <clipPath
       clipPathUnits="userSpaceOnUse"
       id="clipPath65">
      <path
         id="path66"
         style="fill:#ff0000;fill-opacity:1;fill-rule:nonzero;stroke:none"
         d="M 45.619141,35.371094 V 552.06641 H 556.0332 V 132.55273 c -12.09944,-0.84103 -24.2044,-1.60423 -36.31836,-2.20507 -8.14022,-0.42459 -11.94023,-0.5628 -19.77343,-1.17383 -8.33754,-0.65038 -4.34095,-0.39599 -10.48438,-1.03906 -0.005,-5.5e-4 -1.76521,-0.15078 -2.35937,-0.20118 -22.42074,-1.90253 -29.47058,-17.39719 -21.05664,-26.49414 -1.22875,-5.70003 1.47819,-12.664933 8.94921,-18.173825 1.29012,-2.862932 3.18426,-5.860032 5.77735,-8.914063 0.95331,-1.122767 1.90388,-2.247236 2.85351,-3.373046 C 470.45163,70.712626 457.28356,70.388256 444.11719,70 425.55061,69.519385 406.97886,69.330631 388.40625,69.275391 371.72742,69.197767 355.04923,69.083904 338.37109,68.910156 320.98602,68.795518 303.60146,68.620022 286.2168,68.457031 260.8822,68.295121 235.54576,68.384435 210.21094,68.253906 181.74687,68.142343 153.28062,68.055159 124.82031,67.541016 115.97196,67.35609 111.73119,67.291477 103.03125,67.019531 96.046901,66.801212 89.052161,66.572487 82.085938,65.996094 81.226821,65.925009 80.371205,65.820572 79.513672,65.732422 64.746405,64.214446 57.542888,56.798904 57.125,49.388672 53.982271,45.195467 53.56557,39.975874 55.984375,35.371094 Z" />
    </clipPath>
  </defs>
  <sodipodi:namedview
     id="namedview1"
     pagecolor="#ffffff"
     bordercolor="#000000"
     borderopacity="0.25"
     inkscape:showpageshadow="2"
     inkscape:pageopacity="0.0"
     inkscape:pagecheckerboard="0"
     inkscape:deskcolor="#d1d1d1"
     inkscape:zoom="3.025"
     inkscape:cx="252.2314"
     inkscape:cy="350.7438"
     inkscape:window-width="3840"
     inkscape:window-height="2054"
     inkscape:window-x="-11"
     inkscape:window-y="-11"
     inkscape:window-maximized="1"
     inkscape:current-layer="g1">
    <inkscape:page
       x="0"
       y="0"
       width="600"
       height="600"
       id="page2"
       margin="0"
       bleed="0" />
  </sodipodi:namedview>
  <g
     inkscape:groupmode="layer"
     inkscape:label="Image"
     id="g1"
     style="display:inline">
    <path
       style="fill:#666666;stroke-width:0.330579"
       d="m 241.91736,338.01653 v -86.61157 h 23.14049 23.1405 v 86.61157 86.61157 h -23.1405 -23.14049 z"
       id="path1" />
    <path
       style="fill:#666666;stroke-width:0.307878"
       d="M 313.0248,317.19008 V 209.09091 h 26.61157 26.61157 V 317.19008 425.28926 H 339.63637 313.0248 Z"
       id="path2" />
    <path
       style="fill:#666666;stroke-width:0.330579"
       d="m 390.08264,300.66116 v -124.6281 h 26.61157 26.61158 v 124.6281 124.6281 h -26.61158 -26.61157 z"
       id="path5" />
    <path
       style="display:inline;fill:#666666;stroke-width:0.308583"
       d="M 161.54545,317.05785 V 208.46281 h 26.61157 26.61158 v 108.59504 108.59504 h -26.61158 -26.61157 z"
       id="path5-8" />
    <path
       id="path3"
       style="fill:#168967"
       d="m 108.75977,35.371094 v 28.429687 h 417.1914 V 518.01562 H 78.347656 V 156.36328 H 502.14844 V 132.5625 H 80 V 103.4707 H 437.68555 V 77.025391 H 45.619141 V 552.06641 H 556.0332 V 35.371094 Z m 97.82421,8.30664 c 0.62118,-0.0055 1.38094,0.329585 2.00977,0.357422 0.93006,0.04117 5.57483,0.32339 6.52344,0.40625 0.58656,0.05123 1.44529,-0.282675 1.7539,0.21875 0.0739,0.12005 0.13298,0.245555 0.17969,0.375 0.57908,0.04463 1.12251,0.133591 1.57031,0.345703 0.4516,-0.135281 0.85722,-0.22175 0.8711,0.125 0.008,0.199992 -0.005,0.407006 -0.0391,0.613282 0.0313,0.05231 0.0606,0.106589 0.0879,0.164062 2.9886,0.04046 5.70928,0.08537 7.59375,0.134766 1.84845,0.04845 3.89184,-0.55577 5.61523,-0.02539 0.39314,0.02365 0.73534,0.169439 1.00586,0.488281 0.031,0.03659 0.0592,0.07511 0.084,0.115235 0.70569,0.786608 0.81213,2.391377 0.17383,3.18164 -1.05627,1.307759 -3.30507,0.359534 -5.3789,-0.283203 -0.54448,-0.08613 -1.0862,-0.161302 -1.61719,-0.171875 -0.60278,-0.012 -1.18907,-0.02441 -1.75977,-0.03516 -0.34632,0.202913 -0.61822,0.541574 -0.79297,1.0625 -5.97843,0.237598 -7.45184,0.328627 -13.45703,0.431641 -6.20447,0.10643 -12.41034,0.04046 -18.61523,0.05859 -1.82615,0.0053 -2.63378,-1.023051 -2.42188,-1.933593 -9.13233,-0.06374 -18.2641,-0.111518 -27.39648,-0.167969 -1.44295,-0.0089 -2.88695,-0.01638 -4.33008,-0.02539 1.38964,0.921084 0.77906,2.904601 -1.76367,2.847657 -5.27363,-0.118097 -9.63069,-0.204689 -14.91016,-0.361329 -5.22092,-0.154902 -10.45488,-0.297568 -15.66211,-0.736328 -0.67732,-0.05707 -1.3516,-0.147223 -2.02734,-0.220703 -3.05004,-0.331672 -2.76433,-3.210416 -0.0352,-3.285156 0.18195,-0.005 0.37473,0.0019 0.57813,0.02344 0.61221,0.06478 1.22239,0.144833 1.83594,0.195313 5.1279,0.421911 10.27909,0.566425 15.41992,0.71875 4.1922,0.124216 7.78037,0.204088 11.7207,0.291016 0.51192,-0.466077 1.08453,-0.861446 1.67969,-1.232422 -0.7462,-0.469115 -1.45944,-0.978474 -2.06446,-1.613282 -0.38718,-0.406261 1.1224,0.03366 1.6836,0.03906 0.97496,0.0094 1.95079,0.01699 2.92578,0.02344 0.046,-0.03102 0.0911,-0.06222 0.13672,-0.09375 15.8735,-0.07741 31.74747,-0.02044 47.62109,-0.05469 -0.015,-0.648781 0.0427,-1.26304 0.4668,-1.697266 0.19991,-0.204681 0.45202,-0.276785 0.73437,-0.279297 z"
       clip-path="url(#clipPath65)" />
    <path
       style="fill:#168967"
       d="m 109.42149,456.8595 h 384.79339 v 30.41323 H 106.77686 V 456.8595 Z"
       id="path4" />
    <path
       style="fill:#168967;stroke-width:0.330579"
       d="M 161.81818,317.19008 V 208.76033 h 26.44628 26.44628 v 108.42975 108.42975 h -26.44628 -26.44628 z"
       id="path6" />
    <path
       style="fill:#168967;stroke-width:0.330579"
       d="m 242.14876,338.01653 v -86.61157 h 22.97521 22.9752 v 86.61157 86.61157 h -22.9752 -22.97521 z"
       id="path7" />
    <path
       style="fill:#168967;stroke-width:0.330579"
       d="m 390.24793,300.66116 v -124.6281 h 26.44628 26.44629 v 124.6281 124.6281 h -26.44629 -26.44628 z"
       id="path8" />
    <path
       style="fill:#168967;stroke-width:0.330579"
       d="M 313.22314,317.19008 V 209.09091 h 26.44628 26.44628 v 108.09917 108.09918 h -26.44628 -26.44628 z"
       id="path9" />
    <path
       style="fill:#22c55e;stroke:#22c55e;stroke-width:0.330579"
       d="M 45.785124,314.54545 V 77.190083 H 241.65289 437.52066 V 90.247934 103.30579 H 258.67769 79.834711 v 14.71074 14.71074 H 290.90909 501.98347 v 11.73554 11.73554 H 290.08264 78.181818 V 337.19008 518.18182 H 302.14876 526.1157 V 324.47525 130.76868 l 2.06612,0.16337 c 1.13636,0.0898 6.90082,0.45536 12.80992,0.81224 5.90909,0.35688 11.67355,0.74138 12.80991,0.85444 l 2.06612,0.20556 V 342.35256 551.90083 H 300.82645 45.785124 Z"
       id="path10" />
    <path
       style="fill:#22c55e;stroke:#22c55e;stroke-width:0.330579"
       d="m 106.94215,472.06612 v -15.04133 h 193.55372 193.55372 v 15.04133 15.04132 H 300.49587 106.94215 Z"
       id="path11" />
    <path
       style="fill:#22c55e;stroke:#22c55e;stroke-width:0.330579"
       d="m 390.24793,300.66116 v -124.6281 h 26.44628 26.44629 v 124.6281 124.6281 h -26.44629 -26.44628 z"
       id="path12" />
    <path
       style="fill:#22c55e;stroke:#22c55e;stroke-width:0.330579"
       d="M 313.22314,317.19008 V 209.09091 h 26.44628 26.44628 v 108.09917 108.09918 h -26.44628 -26.44628 z"
       id="path13" />
    <path
       style="fill:#22c55e;stroke:#22c55e;stroke-width:0.330579"
       d="m 242.14876,338.01653 v -86.61157 h 22.97521 22.9752 v 86.61157 86.61157 h -22.9752 -22.97521 z"
       id="path14" />
    <path
       style="fill:#22c55e;stroke:#22c55e;stroke-width:0.330579"
       d="M 161.81818,317.19008 V 208.76033 h 26.44628 26.44628 v 108.42975 108.42975 h -26.44628 -26.44628 z"
       id="path15" />
  </g>
</svg>
