<?xml version="1.0" encoding="UTF-8" standalone="no"?>
<!-- Created with Inkscape (http://www.inkscape.org/) -->

<svg
   version="1.1"
   id="svg1"
   width="600"
   height="600"
   viewBox="0 0 600 600"
   sodipodi:docname="settings.svg"
   inkscape:version="1.4.3 (0d15f75, 2025-12-25)"
   xmlns:inkscape="http://www.inkscape.org/namespaces/inkscape"
   xmlns:sodipodi="http://sodipodi.sourceforge.net/DTD/sodipodi-0.dtd"
   xmlns="http://www.w3.org/2000/svg"
   xmlns:svg="http://www.w3.org/2000/svg">
  <defs
     id="defs1">
    <inkscape:path-effect
       effect="spiro"
       id="path-effect20"
       is_visible="true"
       lpeversion="1" />
    <inkscape:path-effect
       effect="spiro"
       id="path-effect19"
       is_visible="true"
       lpeversion="1" />
    <inkscape:path-effect
       effect="spiro"
       id="path-effect18"
       is_visible="true"
       lpeversion="1" />
    <inkscape:path-effect
       effect="spiro"
       id="path-effect17"
       is_visible="true"
       lpeversion="1" />
    <inkscape:path-effect
       effect="spiro"
       id="path-effect16"
       is_visible="true"
       lpeversion="1" />
    <rect
       x="159.88795"
       y="211.3139"
       width="268.81746"
       height="280.50517"
       id="rect16" />
  </defs>
  <sodipodi:namedview
     id="namedview1"
     pagecolor="#ffffff"
     bordercolor="#000000"
     borderopacity="0.25"
     inkscape:showpageshadow="2"
     inkscape:pageopacity="0.0"
     inkscape:pagecheckerboard="0"
     inkscape:deskcolor="#d1d1d1"
     inkscape:zoom="2.138998"
     inkscape:cx="160.35546"
     inkscape:cy="319.7759"
     inkscape:window-width="3840"
     inkscape:window-height="2054"
     inkscape:window-x="-11"
     inkscape:window-y="-11"
     inkscape:window-maximized="1"
     inkscape:current-layer="g1">
    <inkscape:page
       x="0"
       y="0"
       width="600"
       height="600"
       id="page2"
       margin="0"
       bleed="0" />
  </sodipodi:namedview>
  <g
     inkscape:groupmode="layer"
     inkscape:label="Image"
     id="g1"
     style="display:inline">
    <path
       style="fill:#168967"
       d="m 222.06659,231.88427 c -7.30933,7.49988 -17.90998,11.09452 -28.35737,11.82012 -10.4474,0.72561 -20.88613,-1.15315 -31.15566,-3.20526 -10.26954,-2.05212 -20.59264,-4.29583 -31.06519,-4.31094 -10.47255,-0.0151 -21.27707,2.39281 -29.57149,8.78633 -6.661195,5.13459 -11.350544,12.62869 -13.618507,20.72757 -2.267962,8.09888 -2.184576,16.76761 -0.334874,24.97213 3.699404,16.40904 14.133361,30.52291 25.872721,42.56988 11.73936,12.04698 25.01254,22.55787 36.33068,35.00142 11.31813,12.44355 20.82174,27.39427 22.81129,44.09708 2.05855,17.2821 -4.05314,34.33824 -7.20747,51.45428 -1.57717,8.55802 -2.41845,17.35571 -1.12204,25.96073 1.29641,8.60503 4.87529,17.05378 11.13456,23.09934 4.40773,4.25723 10.01858,7.19612 15.95751,8.70648 5.93893,1.51037 12.19577,1.61864 18.24392,0.63276 12.0963,-1.97176 23.12976,-8.20122 32.82913,-15.69325 9.69936,-7.49204 18.29778,-16.29434 27.50933,-24.37863 9.21154,-8.08429 19.23712,-15.56231 30.75242,-19.75829 17.5205,-6.38418 37.08886,-4.62033 55.01018,0.53252 17.92132,5.15285 34.72381,13.51463 52.04086,20.43165 17.31706,6.91702 35.66323,12.46787 54.28797,11.54896 9.31238,-0.45946 18.59979,-2.57172 26.94408,-6.73156 8.34429,-4.15983 15.71838,-10.41588 20.69326,-18.30143 4.08134,-6.46921 6.49349,-13.92981 7.37506,-21.52789 0.88158,-7.59807 0.25812,-15.33275 -1.43201,-22.79274 -3.38024,-14.91998 -10.91213,-28.56252 -19.19832,-41.42218 -8.2862,-12.85966 -17.43674,-25.2048 -24.58208,-38.73167 -7.14534,-13.52686 -12.2762,-28.54069 -11.71856,-43.82862 0.38046,-10.43055 3.38752,-20.59841 7.14074,-30.33773 3.75322,-9.73932 8.27056,-19.17518 11.8649,-28.97426 3.59433,-9.79907 6.27357,-20.08831 6.14485,-30.525 -0.12871,-10.43669 -3.27763,-21.08989 -10.19021,-28.9102 -4.67613,-5.29017 -10.90884,-9.10228 -17.61066,-11.32439 -6.70181,-2.22211 -13.86214,-2.89446 -20.90903,-2.45461 -14.09378,0.8797 -27.52036,6.08577 -40.55684,11.51335 -13.03648,5.42758 -26.13731,11.19296 -40.10081,13.29749 -6.98175,1.05226 -14.14516,1.16406 -21.07966,-0.1644 -6.93451,-1.32847 -13.63983,-4.13196 -19.16344,-8.5299 -7.69294,-6.12518 -12.74173,-15.00784 -16.27399,-24.18511 -3.53226,-9.17728 -5.72162,-18.81103 -8.82676,-28.14148 -3.10515,-9.33045 -7.25566,-18.54893 -14.02972,-25.67713 -3.38703,-3.5641 -7.41111,-6.55947 -11.92092,-8.518136 -4.50981,-1.958669 -9.51417,-2.857264 -14.39982,-2.304779 -6.33592,0.716487 -12.2847,3.873675 -16.79612,8.379705 -4.51142,4.50602 -7.62794,10.30217 -9.39845,16.42773 -3.54103,12.25112 -1.78795,25.39286 1.0595,37.8235 2.84744,12.43064 6.7767,24.71916 7.55999,37.44768 0.39165,6.36426 -0.0217,12.8188 -1.73321,18.9611 -1.71152,6.14231 -4.7594,11.97142 -9.20974,16.53778 z"
       id="path19"
       inkscape:path-effect="#path-effect20"
       inkscape:original-d="m 222.06659,231.88427 c -9.506,45.1925 -79.6323,8.72683 -120.14971,13.09025 -40.517415,4.36341 47.06253,111.57872 71.06131,167.36808 23.99877,55.78936 1.55836,67.00957 2.80505,100.51435 1.24669,33.50479 83.99572,-33.50478 125.29231,-50.49093 41.29659,-16.98614 139.16173,4.98676 208.97635,7.48014 69.81462,2.49338 -32.7256,-112.3579 -49.55591,-168.3031 -16.83031,-55.9452 9.66184,-79.00896 14.96028,-118.74719 5.29843,-39.73823 -106.2803,1.40253 -159.42044,2.33754 -53.14015,0.93502 -43.63414,-59.06192 -65.45121,-88.826635 C 228.76755,66.54206 231.5726,186.69177 222.06659,231.88427 Z" />
    <path
       style="fill:#22c55e;stroke:#22c55e;stroke-width:0.467509"
       d="m 193.78232,521.77357 c -3.96296,-0.88082 -6.01111,-1.63005 -9.81768,-3.59141 -6.44384,-3.32022 -11.10194,-7.9753 -14.45097,-14.44162 -3.97349,-7.67206 -5.47369,-15.39918 -5.03749,-25.94673 0.32705,-7.90821 0.95057,-11.75698 4.50646,-27.81676 3.83057,-17.30032 4.41317,-21.27787 4.41678,-30.15431 0.003,-8.13097 -0.42209,-11.12844 -2.58004,-18.18 -1.74983,-5.71798 -4.11374,-10.88032 -7.60139,-16.60006 -6.43546,-10.55417 -14.36916,-19.29037 -34.45076,-37.93555 -12.54141,-11.64432 -19.31357,-18.60169 -24.55586,-25.22745 -8.509252,-10.75486 -13.922643,-21.66224 -16.357913,-32.95935 -1.227285,-5.69332 -1.140188,-15.64727 0.183493,-20.97072 2.164465,-8.70482 5.673127,-14.81122 11.848127,-20.62021 10.049943,-9.45427 25.101653,-12.72639 45.042593,-9.79192 2.5713,0.37839 9.5138,1.6275 15.42779,2.77581 15.19563,2.9505 20.00846,3.55726 28.28427,3.56582 14.21969,0.0147 24.2861,-3.28648 32.10219,-10.52763 7.19688,-6.66749 11.20952,-15.49418 12.34906,-27.16445 0.89714,-9.18781 -0.31474,-18.50229 -4.72925,-36.34877 -4.87328,-19.70115 -5.87209,-26.40843 -5.44998,-36.5983 0.20425,-4.93069 0.56648,-7.62231 1.46852,-10.91219 3.30463,-12.0525 10.81901,-20.93613 20.67822,-24.44616 3.82714,-1.36252 10.67589,-1.687268 14.64287,-0.694321 7.20871,1.804362 14.27848,6.538361 19.35833,12.962541 6.10276,7.7178 9.45762,15.28835 15.00149,33.85217 1.99371,6.67599 4.33743,14.00523 5.20826,16.28721 8.71571,22.83906 22.34771,33.47679 43.95662,34.30153 13.8859,0.52998 25.68948,-2.32999 47.95705,-11.61983 18.37813,-7.6672 28.9855,-11.24995 37.77127,-12.75767 16.42131,-2.81804 30.94997,0.11152 41.50295,8.36866 10.77398,8.43006 16.2122,23.03972 14.63419,39.31445 -1.0581,10.91263 -3.8488,20.03739 -12.21353,39.93465 -10.38956,24.71373 -12.40379,32.30225 -12.34705,46.51711 0.0273,6.8403 0.22904,9.33382 1.07801,13.324 1.61035,7.56864 4.51746,15.73052 8.47393,23.79101 4.56607,9.30244 7.12039,13.53457 19.64191,32.54377 5.58932,8.48529 11.48644,17.735 13.1047,20.55492 13.34193,23.24917 17.48122,42.97959 12.8483,61.24306 -3.63738,14.33901 -13.54988,25.93245 -28.02603,32.77867 -8.82145,4.17193 -17.6967,5.96629 -29.49331,5.96284 -18.21497,-0.005 -31.76397,-3.71266 -64.9837,-17.7811 -22.69504,-9.61127 -30.77449,-12.5623 -42.01933,-15.34765 -9.64525,-2.38912 -16.08223,-3.19431 -25.53567,-3.1942 -14.52236,1.6e-4 -24.75914,2.71349 -36.65833,9.71654 -8.00027,4.70841 -13.33846,8.96556 -27.81427,22.18162 -12.44822,11.36493 -18.30383,16.22556 -24.58779,20.40987 -8.96157,5.96726 -17.35304,9.63884 -25.60928,11.20502 -4.39559,0.83383 -13.49463,0.85349 -17.16776,0.0371 z"
       id="path1" />
  </g>
</svg>
